<?xml version="1.0" encoding="utf-8"?>
<svg version="1.1" id="Layer_1" xmlns="http://www.w3.org/2000/svg" xmlns:xlink="http://www.w3.org/1999/xlink" x="0px" y="0px"
 viewBox="0 0 200 200" style="enable-background:new 0 0 200 200;" xml:space="preserve">
<style type="text/css">
.st0{fill:#666666;}
.st1{fill:#EE4242;}
</style>
<g>
<path class="st0" d="M11.6,85.8c0.2-1.2,0.4-2.4,0.7-3.5c2.5-9.8,11.4-16.7,21.5-16.8c4.7,0,9.3,0,14,0c0.3,0,0.5,0,0.9,0
c0.1,2.8,0.7,5.5,1.8,8c1.1,2.5,2.7,4.8,4.8,6.8c-1,0.4-1.9,0.7-2.8,1.1c-10.1,4.7-15.5,12.6-16.1,23.7c-0.1,2,0,4,0,6.1
c-8.6-0.5-17-1.7-24.7-5.6C11.6,99.1,11.6,92.5,11.6,85.8z"/>
<path class="st0" d="M188.4,105.3c-7.2,3.8-18.2,5.4-24.7,5.5c0-0.4,0-0.8,0-1.1c0-3.1,0.2-6.3-0.5-9.4c-2.2-9.9-8.1-16.5-17.5-20
c-0.2-0.1-0.5-0.2-0.9-0.3c4.1-4.1,6.3-9.1,6.6-14.9c0.4,0,0.7,0,1,0c4.5,0,9,0,13.4,0c11.4,0,20.6,7.8,22.4,19
c0.1,0.4,0.2,0.9,0.2,1.3C188.4,91.9,188.4,98.6,188.4,105.3z"/>
<path class="st0" d="M100.2,49.1c-10.4,0-18.9-8.4-19-18.8c0-10.4,8.3-18.9,18.8-18.9c10.5-0.1,19,8.4,19,18.9
C119.1,40.6,110.6,49,100.2,49.1z"/>
<path class="st0" d="M101,99.3c-9.6,0-17.4-7.8-17.4-17.4c0-9.6,7.8-17.4,17.4-17.4c9.7,0,17.5,7.8,17.5,17.4
C118.4,91.5,110.6,99.2,101,99.3z"/>
<path class="st0" d="M52.8,63.9c0.1-9.2,7.1-16.7,16.6-17.4c9.2-0.6,16.8,6.1,18.1,14.6c0,0.3,0.1,0.6,0.1,0.9
c0.3,1.7-0.1,3-1.6,4.3c-3.5,3-5.5,7-6.4,11.6c-0.1,0.4-0.4,0.8-0.7,1C69,85,55.4,78.8,53.3,67.3C53.1,66.2,53,65,52.8,63.9z"/>
<path class="st0" d="M42.1,64.3c-10,0-17.4-7-18.1-16.4c-0.7-8.6,5.9-16.7,14.6-18.2c10.2-1.6,19.7,5.9,20.2,16.3
c0,0.3-0.2,0.8-0.5,1c-5.3,3.7-8.5,8.6-9.4,15c-0.1,0.5-0.3,0.8-0.7,1C45.9,63.9,43.7,64.3,42.1,64.3z"/>
<path class="st0" d="M129.7,46.5c9.2,0,16.9,7,17.5,15.8c0.7,9.3-5.6,17.4-14.8,18.8c-3.2,0.5-6.4,0.1-9.3-1.2
c-0.3-0.1-0.7-0.6-0.7-1c-1-6.3-4.1-11.2-9.3-14.8c-0.5-0.4-0.7-0.7-0.7-1.4c0.4-8.3,7.5-15.6,15.8-16.2
C128.8,46.6,129.4,46.5,129.7,46.5z"/>
<path class="st0" d="M158.1,63.8c-1.7,0-3.9-0.5-6.1-1.3c-0.5-0.2-0.7-0.4-0.8-1c-1-6.4-4.1-11.3-9.4-15c-0.5-0.3-0.5-0.6-0.5-1.1
c0.6-8.9,7.7-15.9,16.4-16.3c9.1-0.4,16.8,5.9,18.2,14.8C177.5,54.2,169.3,63.8,158.1,63.8z"/>
<path class="st0" d="M82.1,43.4c-0.6,0.7-1.2,1.4-1.9,2.2c-2.9-1.6-5.9-2.4-9.1-2.6c-3.2-0.2-6.3,0.7-9.3,1.8
c-0.9-7-4.3-12.3-10.3-16c0.5-2,1.4-3.9,2.7-5.6c5.7-7.9,16.9-9.5,24.6-3.5c0.7,0.5,0.8,1,0.5,1.8c-2.9,7.4-2.1,14.4,2.2,21
C81.7,42.7,81.9,43,82.1,43.4z"/>
<path class="st0" d="M149.2,27.5c-6.8,3.6-10.6,9.2-11.5,16.7c-1.7-0.4-3.3-0.8-4.9-1.1c-4-0.7-7.8-0.1-11.5,1.6
c-0.6,0.3-0.9,0.2-1.4-0.3c-1.6-1.8-1.5-1.8-0.4-3.9c3.1-5.9,3.6-12.1,1.3-18.4c-0.2-0.5-0.2-0.8,0.2-1.2
c8.7-8.5,23.8-5.3,28.1,6.1C149.1,27.1,149.1,27.3,149.2,27.5z"/>
<path class="st0" d="M113.1,51c-2.3,3.3-3.6,6.9-3.8,10.9c-6.2-2.4-12.1-2.2-18.1,0.8c-0.1-4.4-1.4-8.3-3.9-11.8
C89.8,50.1,110.7,50.2,113.1,51z"/>
<g>
<path class="st0" d="M130.4,118.8c-2.1-10.9-11.1-18.3-22.3-18.4c-4.7,0-9.4,0-14.2,0c-1.7,0-3.4,0.2-5,0.5
c-10,2.1-17.2,10.6-17.6,20.7h59.3C130.6,120.7,130.5,119.7,130.4,118.8z"/>
<path class="st0" d="M85.3,97.7c0.2-0.1,0.4-0.2,0.7-0.3c-4.1-4.1-6.3-9-6.6-14.7c-0.3,0-0.6-0.1-0.8-0.1c-5.6,0-11.2,0-16.9,0
c-0.5,0-1.1,0.1-1.6,0.1C48.7,84.3,40.7,93.5,40.6,105c0,5.6,0,11.1,0,16.7h26.5C67.7,110.6,74.7,101.3,85.3,97.7z"/>
<path class="st0" d="M159.6,105.2c0-1.9-0.2-3.9-0.6-5.8c-2.1-9.2-10.5-16.3-20-16.8c-5.3-0.3-10.6-0.1-15.9-0.1
c-0.1,0-0.3,0-0.5,0.1c-0.3,5.8-2.5,10.7-6.6,14.8c0.1,0.1,0.1,0.1,0.2,0.1c0.2,0.1,0.5,0.1,0.7,0.2c7.4,2.6,12.7,7.5,15.9,14.6
c1.3,3,2,6.1,2.1,9.3h24.8C159.6,116.2,159.7,110.7,159.6,105.2z"/>
</g>
</g>
<path class="st1" d="M183.6,124.4H16.4c-3.5,0-6.4,2.9-6.4,6.4v51.4c0,3.5,2.9,6.4,6.4,6.4h167.1c3.5,0,6.4-2.9,6.4-6.4v-51.4
C190,127.3,187.1,124.4,183.6,124.4z M62,172.6H39.3v-31.9h6.5v26.5H62V172.6z M81.5,172.6H75v-32.2h6.5V172.6z M112.2,172.6h-6.9
l-11.5-32.2h7.1l8.2,23.8l7.9-23.8h6.9L112.2,172.6z M160.7,172.6h-24.5v-32.2H160v5.5h-17.4v7.1h16.2v5.4h-16.2v8.8h18V172.6z"/>
</svg>